<?xml version="1.0" standalone="no"?>
<!DOCTYPE svg PUBLIC "-//W3C//DTD SVG 20010904//EN"
 "http://www.w3.org/TR/2001/REC-SVG-20010904/DTD/svg10.dtd">
<svg version="1.0" xmlns="http://www.w3.org/2000/svg"
 width="537.000000pt" height="110.000000pt" viewBox="0 0 537.000000 110.000000"
 preserveAspectRatio="xMidYMid meet">

<g transform="translate(0.000000,110.000000) scale(0.100000,-0.100000)"
fill="#66397C" stroke="none">
<path d="M90 1060 l0 -40 -40 0 -40 0 0 -500 c0 -577 -12 -520 115 -520 92 0
115 10 115 50 0 25 4 30 24 30 49 0 56 20 56 161 l0 129 39 0 c64 0 91 15 91
49 0 25 5 30 34 35 42 8 46 18 46 116 0 97 -4 100 -124 100 l-86 0 0 60 0 60
39 0 c64 0 91 15 91 49 0 25 5 30 34 35 42 8 46 18 46 116 0 114 10 110 -236
110 l-204 0 0 -40z m420 1 c5 -11 10 -45 10 -76 0 -91 -5 -95 -115 -95 l-95 0
0 -120 0 -120 95 0 c109 0 115 -4 115 -90 0 -86 -6 -90 -115 -90 l-95 0 0
-168 c0 -120 -4 -173 -13 -186 -10 -14 -26 -16 -102 -14 l-90 3 -3 488 -2 487
200 0 c187 0 200 -1 210 -19z"/>
<path d="M137 838 c-4 -116 -7 -323 -7 -460 l0 -248 70 0 70 0 2 183 3 182
103 3 102 3 0 59 0 60 -105 0 -105 0 0 150 0 150 105 0 105 0 0 65 0 65 -168
0 -169 0 -6 -212z m333 147 l0 -45 -104 0 -104 0 -49 45 -48 44 153 1 152 0 0
-45z m-210 -425 l0 -40 -55 0 -55 0 0 40 0 40 55 0 55 0 0 -40z"/>
<path d="M843 1094 c-19 -4 -23 -12 -23 -40 0 -35 -3 -37 -52 -48 l-28 -6 0
-490 c0 -562 -11 -510 104 -510 71 0 96 14 96 56 0 19 5 24 24 24 45 0 56 23
56 116 l0 84 75 0 75 0 0 -120 c0 -153 5 -160 113 -160 80 0 107 15 107 58 0
17 6 22 24 22 52 0 56 22 56 295 0 177 -4 270 -14 317 -38 175 -164 320 -332
379 -58 20 -229 34 -281 23z m236 -25 c168 -38 325 -199 361 -369 7 -36 10
-146 8 -325 l-3 -270 -85 0 -85 0 -3 138 -3 137 -134 0 -134 0 -3 -138 -3
-137 -74 -3 c-53 -2 -77 1 -82 10 -10 15 -12 952 -2 961 10 11 193 8 242 -4z"/>
<path d="M867 833 c-4 -120 -7 -327 -7 -460 l0 -243 55 0 55 0 0 140 0 140
165 0 165 0 0 -140 0 -140 60 0 60 0 0 258 c0 339 -12 388 -126 511 -92 99
-219 149 -385 151 l-36 0 -6 -217z m217 66 c117 -43 203 -158 214 -284 l5 -65
-167 0 -166 0 0 185 0 185 30 0 c16 0 54 -9 84 -21z m216 -419 l0 -50 -165 0
-165 0 0 50 0 50 165 0 165 0 0 -50z"/>
<path d="M1000 735 l0 -155 136 0 137 0 -5 44 c-11 97 -78 189 -170 235 -102
51 -98 56 -98 -124z"/>
<path d="M1758 1090 c-10 -6 -18 -23 -18 -39 0 -23 -5 -29 -37 -37 l-38 -9 -3
-490 c-2 -452 -1 -491 15 -502 12 -9 64 -13 175 -13 l159 0 17 29 16 29 27
-29 c25 -27 32 -29 99 -29 68 0 77 3 141 42 99 61 98 73 -31 252 -55 76 -100
142 -100 145 0 4 32 40 70 80 86 89 121 154 128 237 10 130 -54 244 -172 304
l-69 35 -181 3 c-116 1 -187 -1 -198 -8z m437 -37 c145 -78 208 -252 142 -396
-31 -68 -93 -131 -157 -161 l-48 -22 119 -165 c73 -100 118 -172 116 -184 -2
-18 -11 -20 -99 -23 l-96 -3 -34 47 -33 47 -5 -44 -5 -44 -164 -3 c-125 -2
-166 1 -173 10 -9 15 -11 928 -2 953 6 15 28 16 203 13 178 -3 200 -5 236 -25z"/>
<path d="M1780 591 l0 -461 145 0 144 0 3 81 3 82 55 -81 55 -81 73 -1 c39 0
72 3 72 8 -1 4 -57 86 -125 182 l-125 175 32 8 c135 35 218 135 218 263 0 114
-47 197 -142 249 -52 29 -56 30 -230 33 l-178 4 0 -461z m270 396 c0 -42 -1
-44 -39 -56 -43 -12 -97 -67 -107 -107 -4 -14 -4 -47 -2 -74 4 -41 15 -63 71
-137 36 -48 61 -90 56 -92 -19 -6 -101 31 -137 63 -19 17 -46 53 -58 81 -64
135 4 301 142 350 66 24 74 21 74 -28z m0 -216 l0 -150 -28 8 c-48 14 -72 34
-93 79 -36 73 -14 151 54 192 65 40 67 37 67 -129z m100 123 c40 -34 60 -74
60 -119 0 -73 -45 -132 -112 -149 l-28 -6 0 150 0 150 24 0 c14 0 38 -12 56
-26z m-102 -289 c2 -2 2 -17 0 -33 l-3 -31 -28 40 -29 40 29 -7 c15 -4 29 -8
31 -9z m-40 -98 l42 -10 0 -71 c0 -38 -4 -66 -8 -60 -20 22 -112 154 -112 160
0 3 8 3 18 -1 9 -4 36 -12 60 -18z"/>
<path d="M2100 775 c0 -63 3 -115 6 -115 17 0 46 24 59 50 26 49 19 104 -16
145 -17 19 -35 35 -40 35 -5 0 -9 -52 -9 -115z"/>
<path d="M2875 1087 c-69 -23 -98 -43 -173 -121 -90 -94 -115 -146 -115 -241
-1 -91 28 -158 94 -220 45 -42 46 -45 23 -45 -41 0 -64 -18 -64 -49 0 -23 -5
-29 -37 -37 l-38 -9 1 -70 c1 -113 64 -209 172 -262 77 -38 199 -39 279 -4 77
34 224 188 248 260 39 117 7 261 -77 341 -33 32 -36 39 -23 50 8 7 15 23 15
36 0 16 6 24 18 24 10 0 28 7 41 16 21 15 23 22 18 70 -16 151 -129 261 -279
270 -36 2 -80 -2 -103 -9z m214 -38 c98 -49 157 -147 149 -244 l-3 -40 -85 0
-84 0 -9 42 c-19 97 -136 115 -173 27 -27 -65 21 -124 101 -124 94 0 207 -78
256 -177 32 -66 33 -187 2 -254 -28 -63 -82 -120 -140 -149 -63 -32 -180 -39
-252 -15 -98 32 -182 138 -197 247 -10 69 2 78 95 78 84 0 101 -9 101 -50 0
-74 90 -127 163 -96 47 19 67 51 67 106 0 77 -50 119 -142 121 -142 2 -258
128 -258 279 0 120 73 226 183 267 18 6 62 12 98 12 55 1 76 -4 128 -30z
m-146 -277 c21 -18 22 -42 2 -42 -19 0 -55 36 -55 55 0 17 25 11 53 -13z m18
-381 c19 -20 29 -40 29 -60 0 -28 -3 -31 -30 -31 -39 0 -88 45 -96 88 -6 31
-6 32 31 32 27 0 44 -7 66 -29z"/>
<path d="M2895 1041 c-217 -53 -251 -360 -51 -463 21 -11 69 -23 107 -27 107
-11 163 -63 163 -151 0 -129 -159 -197 -250 -106 -18 18 -36 46 -39 62 -13 56
-11 55 -77 52 l-63 -3 3 -45 c6 -90 92 -195 180 -220 53 -14 143 -12 192 5
108 38 175 138 174 260 -1 148 -100 251 -262 273 -72 10 -106 36 -124 93 -29
100 84 184 181 134 28 -14 61 -68 61 -99 0 -13 12 -16 60 -16 l60 0 0 33 c0
46 -41 127 -83 164 -58 51 -153 73 -232 54z m162 -396 c63 -26 100 -62 132
-126 48 -97 38 -200 -29 -281 -34 -41 -120 -88 -163 -88 -27 0 -28 2 -25 41 3
38 6 42 41 54 101 35 145 141 97 235 -22 44 -65 77 -109 86 -29 6 -31 9 -31
50 0 40 2 44 25 44 14 0 42 -7 62 -15z"/>
<path d="M3568 1089 c-11 -6 -18 -22 -18 -38 0 -25 -5 -30 -34 -35 -19 -4 -37
-14 -40 -22 -3 -9 -6 -231 -6 -494 0 -549 -10 -500 100 -500 77 0 100 12 100
50 0 24 4 30 21 30 11 0 29 5 40 10 18 10 19 26 19 500 0 474 -1 490 -19 500
-25 13 -141 13 -163 -1z m160 -21 c9 -9 12 -128 12 -474 0 -254 -3 -469 -6
-478 -9 -23 -159 -23 -168 0 -3 9 -6 224 -6 478 0 346 3 465 12 474 7 7 40 12
78 12 38 0 71 -5 78 -12z"/>
<path d="M3590 590 l0 -460 60 0 60 0 -2 458 -3 457 -57 3 -58 3 0 -461z"/>
<path d="M4048 1088 c-9 -7 -18 -26 -20 -43 -2 -23 -9 -31 -28 -33 -52 -8 -50
8 -50 -503 0 -436 1 -479 17 -495 15 -14 32 -16 123 -11 171 9 244 41 379 171
148 143 201 252 201 416 0 245 -161 445 -398 496 -84 17 -203 18 -224 2z m264
-28 c149 -46 258 -150 318 -305 32 -82 33 -242 2 -327 -47 -129 -136 -226
-261 -286 -69 -33 -83 -36 -188 -40 -81 -3 -117 -1 -128 8 -13 11 -15 76 -15
479 0 350 3 470 12 479 20 20 186 15 260 -8z"/>
<path d="M4077 1043 c-4 -3 -7 -210 -7 -460 l0 -453 71 0 c200 0 362 97 440
264 83 178 49 378 -89 515 -68 69 -138 107 -231 127 -69 14 -173 19 -184 7z
m278 -56 c277 -132 341 -491 125 -707 -81 -81 -192 -129 -297 -130 l-43 0 0
441 0 442 71 -6 c52 -4 92 -15 144 -40z"/>
<path d="M4170 585 l0 -357 48 7 c115 16 212 88 264 193 30 60 33 75 33 157 0
77 -4 98 -27 147 -50 107 -156 186 -271 203 l-47 7 0 -357z"/>
<path d="M4940 1060 l0 -40 -40 0 -40 0 0 -510 0 -510 199 0 c217 0 231 4 231
56 0 19 5 24 24 24 43 0 56 24 56 106 0 103 -12 114 -125 114 l-85 0 0 35 c0
35 0 35 45 35 50 0 85 25 85 60 0 13 7 20 20 20 42 0 60 34 60 114 0 100 -6
106 -121 106 l-89 0 0 60 0 60 45 0 c50 0 85 25 85 60 0 13 7 20 20 20 11 0
29 9 41 21 19 19 21 30 17 105 -2 62 -7 87 -18 94 -8 5 -104 10 -212 10 l-198
0 0 -40z m405 -75 l0 -90 -102 -3 -103 -3 0 -119 0 -119 103 -3 102 -3 0 -85
0 -85 -102 -3 -103 -3 0 -94 0 -94 103 -3 102 -3 0 -85 0 -85 -192 -3 -193 -2
0 490 0 490 193 -2 192 -3 0 -90z"/>
<path d="M4990 590 l0 -460 165 0 165 0 0 60 0 60 -105 0 -105 0 0 125 0 125
105 0 105 0 0 60 0 60 -105 0 -105 0 0 150 0 150 105 0 105 0 0 65 0 65 -165
0 -165 0 0 -460z m310 395 l0 -45 -104 0 -104 0 -36 45 -37 45 140 0 141 0 0
-45z m0 -795 l0 -40 -142 0 -142 0 39 40 39 40 103 0 103 0 0 -40z"/>
</g>
</svg>
